<?xml version="1.0" encoding="UTF-8"?>
<svg id="Layer_2" xmlns="http://www.w3.org/2000/svg" viewBox="0 0 711.31 374.2">
  <defs>
    <style>
      .cls-1 {
        fill: #ad5c00;
      }

      .cls-2 {
        fill: maroon;
      }
    </style>
  </defs>
  <g id="logo">
    <g id="Atnip">
      <path class="cls-2" d="M623.57,339.53v34.67h-41.71v-95.42h56.18c12.67,0,22.3,1.17,28.9,3.5,6.59,2.33,11.82,5.9,15.69,10.7,3.86,4.8,5.8,10.18,5.8,16.15,0,9.09-3.95,16.43-11.86,22.02-7.9,5.59-18.45,8.39-31.64,8.39h-21.36ZM623.57,319.04h7.01c10.75,0,16.13-3.17,16.13-9.51,0-5.97-4.97-8.95-14.91-8.95h-8.23v18.46Z"/>
      <path class="cls-2" d="M553.45,278.78v95.42h-38.06v-95.42h38.06Z"/>
      <polygon class="cls-2" points="486.99 278.77 486.99 374.2 448.93 374.2 394.68 317.39 394.68 374.2 356.72 374.2 356.72 278.77 400.92 278.77 448.93 327.29 448.93 278.77 486.99 278.77"/>
      <polygon class="cls-2" points="486.99 214.62 486.99 255.54 328.32 255.54 328.32 374.2 287.4 374.2 287.4 255.54 226.17 255.54 254.97 374.2 204.05 374.2 175.25 255.54 102.15 255.54 73.35 374.2 22.43 374.2 51.23 255.54 0 255.54 0 214.62 61.16 214.62 108.24 20.61 103.24 0 164.16 0 164.16 .01 159.16 20.6 143.7 84.31 138.7 104.92 112.08 214.62 165.32 214.62 143.7 125.52 148.7 104.92 164.16 41.21 169.16 20.61 199.16 144.24 216.24 214.62 287.4 214.62 287.4 103.29 328.32 122.24 328.32 214.62 486.99 214.62"/>
      <circle class="cls-1" cx="534.42" cy="237.54" r="18"/>
      <polygon class="cls-1" points="711.31 255.53 637.74 255.53 563.11 220.97 537.59 209.15 525.05 203.34 521.79 201.83 486.99 185.71 486.99 117.82 448.93 117.82 448.93 168.09 446.56 166.99 414.25 152.03 414.13 151.97 287.4 93.28 246.48 112.23 205.95 131.01 198.52 100.37 246.48 78.15 287.4 59.2 388.1 105.83 407.65 114.89 411.11 116.49 414.13 117.89 414.13 83.02 521.79 83.02 521.79 167.75 525.05 169.26 525.05 169.27 542.29 177.25 563.11 186.89 588.82 198.8 711.31 255.53"/>
    </g>
  </g>
</svg>