<?xml version="1.0" encoding="UTF-8"?>
<svg id="Layer_2" xmlns="http://www.w3.org/2000/svg" viewBox="0 0 539.69 548.41">
  <defs>
    <style>
      .cls-1 {
        fill: #f9f9f9;
      }

      .cls-2 {
        fill: maroon;
      }
    </style>
  </defs>
  <g id="logo2">
    <rect class="cls-1" width="539.69" height="548.41" rx="100" ry="100"/>
    <polygon class="cls-2" points="473.12 374.51 398.04 374.51 440.25 548.41 365.62 548.41 323.41 374.51 216.28 374.51 174.07 548.41 99.45 548.41 141.65 374.51 66.57 374.51 66.57 314.54 156.21 314.54 225.21 30.21 217.88 0 307.16 0 307.16 .01 299.83 30.19 277.17 123.56 269.85 153.77 230.83 314.54 308.86 314.54 277.17 183.96 284.5 153.77 307.16 60.4 314.49 30.21 358.45 211.39 383.49 314.54 473.12 314.54 473.12 374.51"/>
  </g>
</svg>