<?xml version="1.0" encoding="UTF-8"?>
<svg id="Layer_2" xmlns="http://www.w3.org/2000/svg" viewBox="0 0 432.13 738.28">
  <defs>
    <style>
      .cls-1 {
        fill: #ffde8c;
      }

      .cls-2 {
        fill: #fff;
      }

      .cls-3 {
        fill: #ffad52;
      }
    </style>
  </defs>
  <g id="_x31_-2">
    <g>
      <rect class="cls-3" x="0" y="369.14" width="432.13" height="369.14"/>
      <rect class="cls-1" x="0" width="432.13" height="369.14"/>
      <path class="cls-2" d="M329.49,738.28v-244.05c0-3.04,2.46-5.5,5.5-5.5h57.96l-137.64-116.7c-1.23-1.05-1.94-2.58-1.94-4.2v-168.49h-74.23v96.23c0,2.14-1.24,4.09-3.19,4.99-1.94.9-4.23.59-5.87-.8L0,155.58v-14.42s168.13,142.54,168.13,142.54v-89.85c0-3.04,2.46-5.5,5.5-5.5h85.23c3.04,0,5.5,2.46,5.5,5.5v171.44l147.13,124.75c1.76,1.49,2.4,3.92,1.61,6.09-.79,2.17-2.86,3.61-5.16,3.61h-67.45v238.55h-11Z"/>
    </g>
  </g>
</svg>