<?xml version="1.0" encoding="UTF-8"?>
<svg id="Layer_2" xmlns="http://www.w3.org/2000/svg" viewBox="0 0 1920 200">
  <defs>
    <style>
      .cls-1 {
        fill: #fff;
      }

      .cls-2 {
        opacity: .25;
      }

      .cls-3 {
        fill: none;
        stroke: #fff;
        stroke-linejoin: round;
      }

      .cls-4 {
        fill: maroon;
      }
    </style>
  </defs>
  <g id="_x31_-5">
    <g id="houseB2">
      <rect class="cls-4" x="0" width="1920" height="200"/>
      <g id="_x3C_Grid_x3E_" class="cls-2">
        <line class="cls-3" x1="0" y1="166.67" x2="1920" y2="166.67"/>
        <line class="cls-3" x1="0" y1="133.33" x2="1920" y2="133.33"/>
        <line class="cls-3" x1="0" y1="100" x2="1920" y2="100"/>
        <line class="cls-3" x1="0" y1="66.67" x2="1920" y2="66.67"/>
        <line class="cls-3" x1="0" y1="33.33" x2="1920" y2="33.33"/>
        <line class="cls-3" x1="1882.35" x2="1882.35" y2="200"/>
        <line class="cls-3" x1="1844.71" x2="1844.71" y2="200"/>
        <line class="cls-3" x1="1807.06" x2="1807.06" y2="200"/>
        <line class="cls-3" x1="1769.41" x2="1769.41" y2="200"/>
        <line class="cls-3" x1="1731.76" x2="1731.76" y2="200"/>
        <line class="cls-3" x1="1694.12" x2="1694.12" y2="200"/>
        <line class="cls-3" x1="1656.47" x2="1656.47" y2="200"/>
        <line class="cls-3" x1="1618.82" x2="1618.82" y2="200"/>
        <line class="cls-3" x1="1581.18" x2="1581.18" y2="200"/>
        <line class="cls-3" x1="1543.53" x2="1543.53" y2="200"/>
        <line class="cls-3" x1="1505.88" x2="1505.88" y2="200"/>
        <line class="cls-3" x1="1468.24" x2="1468.24" y2="200"/>
        <line class="cls-3" x1="1430.59" x2="1430.59" y2="200"/>
        <line class="cls-3" x1="1392.94" x2="1392.94" y2="200"/>
        <line class="cls-3" x1="1355.29" x2="1355.29" y2="200"/>
        <line class="cls-3" x1="1317.65" x2="1317.65" y2="200"/>
        <line class="cls-3" x1="1280" x2="1280" y2="200"/>
        <line class="cls-3" x1="1242.35" x2="1242.35" y2="200"/>
        <line class="cls-3" x1="1204.71" x2="1204.71" y2="200"/>
        <line class="cls-3" x1="1167.06" x2="1167.06" y2="200"/>
        <line class="cls-3" x1="1129.41" x2="1129.41" y2="200"/>
        <line class="cls-3" x1="1091.76" x2="1091.76" y2="200"/>
        <line class="cls-3" x1="1054.12" x2="1054.12" y2="200"/>
        <line class="cls-3" x1="1016.47" x2="1016.47" y2="200"/>
        <line class="cls-3" x1="978.82" x2="978.82" y2="200"/>
        <line class="cls-3" x1="941.18" x2="941.18" y2="200"/>
        <line class="cls-3" x1="903.53" x2="903.53" y2="200"/>
        <line class="cls-3" x1="865.88" x2="865.88" y2="200"/>
        <line class="cls-3" x1="828.24" x2="828.24" y2="200"/>
        <line class="cls-3" x1="790.59" x2="790.59" y2="200"/>
        <line class="cls-3" x1="752.94" x2="752.94" y2="200"/>
        <line class="cls-3" x1="715.29" x2="715.29" y2="200"/>
        <line class="cls-3" x1="677.65" x2="677.65" y2="200"/>
        <line class="cls-3" x1="640" x2="640" y2="200"/>
        <line class="cls-3" x1="602.35" x2="602.35" y2="200"/>
        <line class="cls-3" x1="564.71" x2="564.71" y2="200"/>
        <line class="cls-3" x1="527.06" x2="527.06" y2="200"/>
        <line class="cls-3" x1="489.41" x2="489.41" y2="200"/>
        <line class="cls-3" x1="451.76" x2="451.76" y2="200"/>
        <line class="cls-3" x1="414.12" x2="414.12" y2="200"/>
        <line class="cls-3" x1="376.47" x2="376.47" y2="200"/>
        <line class="cls-3" x1="338.82" x2="338.82" y2="200"/>
        <line class="cls-3" x1="301.18" x2="301.18" y2="200"/>
        <line class="cls-3" x1="263.53" x2="263.53" y2="200"/>
        <line class="cls-3" x1="225.88" x2="225.88" y2="200"/>
        <line class="cls-3" x1="188.24" x2="188.24" y2="200"/>
        <line class="cls-3" x1="150.59" x2="150.59" y2="200"/>
        <line class="cls-3" x1="112.94" x2="112.94" y2="200"/>
        <line class="cls-3" x1="75.29" x2="75.29" y2="200"/>
        <line class="cls-3" x1="37.65" x2="37.65" y2="200"/>
      </g>
      <g id="houPre">
        <g id="houses">
          <path class="cls-1" d="M815.75,182.56c-1.38,0-2.5-1.12-2.5-2.5v-47.28c0-1.38,1.12-2.5,2.5-2.5h6.21l-61.11-81.66-31.04,41.48c-.47.63-1.21,1-2,1h-22.53c-1.38,0-2.5-1.12-2.5-2.5v-31.76h-5.52v31.76c0,1.38-1.12,2.5-2.5,2.5h-112.9l-29.31,39.17h6.21c1.38,0,2.5,1.12,2.5,2.5v47.28c0,1.38-1.12,2.5-2.5,2.5s-2.5-1.12-2.5-2.5v-44.78h-8.7c-.95,0-1.81-.53-2.24-1.38-.42-.85-.33-1.86.23-2.62l33.05-44.17c.47-.63,1.21-1,2-1h111.65v-31.76c0-1.38,1.12-2.5,2.5-2.5h10.52c1.38,0,2.5,1.12,2.5,2.5v31.76h18.78l32.29-43.16c.47-.63,1.21-1,2-1s1.53.37,2,1l66.1,88.33c.57.76.66,1.77.23,2.62-.42.85-1.29,1.38-2.24,1.38h-8.7v44.78c0,1.38-1.12,2.5-2.5,2.5Z"/>
          <g>
            <path class="cls-1" d="M0,91.11h65.16c.79,0,1.53-.37,2-1l31.05-41.49,31.05,41.49c.47.63,1.21,1,2,1h41.17c1.38,0,2.5-1.12,2.5-2.5v-31.76h5.53v31.76c0,1.38,1.12,2.5,2.5,2.5h34.03l29.31,39.17h-6.2c-1.38,0-2.5,1.12-2.5,2.5v47.28c0,1.38,1.12,2.5,2.5,2.5s2.5-1.12,2.5-2.5v-44.78h8.69c.95,0,1.81-.53,2.24-1.38.42-.85.33-1.86-.23-2.62l-33.05-44.17c-.47-.63-1.21-1-2-1h-32.78v-31.76c0-1.38-1.12-2.5-2.5-2.5h-10.53c-1.38,0-2.5,1.12-2.5,2.5v31.76h-37.42l-32.3-43.16c-.47-.63-1.21-1-2-1s-1.53.37-2,1l-32.3,43.16H0v5Z"/>
            <path class="cls-1" d="M1876.32,182.56c-1.38,0-2.5-1.12-2.5-2.5v-44.78h-8.69c-.95,0-1.81-.53-2.24-1.38-.42-.85-.33-1.86.23-2.62l33.05-44.17c.47-.63,1.21-1,2-1h21.82v5h-20.57l-29.31,39.17h6.2c1.38,0,2.5,1.12,2.5,2.5v47.28c0,1.38-1.12,2.5-2.5,2.5Z"/>
          </g>
          <path class="cls-1" d="M1474.53,182.56c-1.38,0-2.5-1.12-2.5-2.5v-47.28c0-1.38,1.12-2.5,2.5-2.5h6.21l-29.44-39.34-85.56-12.04c-1.23-.17-2.15-1.23-2.15-2.48v-9.57c0-.56.19-1.08.5-1.5l-18.05-8.26-18.06,8.26c.31.42.5.94.5,1.5v9.57c0,1.25-.92,2.3-2.15,2.48l-85.56,12.04-29.44,39.34h6.21c1.38,0,2.5,1.12,2.5,2.5v47.28c0,1.38-1.12,2.5-2.5,2.5s-2.5-1.12-2.5-2.5v-44.78h-8.7c-.95,0-1.81-.53-2.24-1.38-.42-.85-.33-1.86.23-2.62l33.05-44.17c.4-.53.99-.88,1.65-.98l84.44-11.88v-4.9h-4.78c-1.18,0-2.19-.82-2.44-1.97-.25-1.15.33-2.32,1.4-2.81l27.34-12.51c.66-.3,1.42-.3,2.08,0l27.33,12.51c1.07.49,1.65,1.66,1.4,2.81-.25,1.15-1.27,1.97-2.44,1.97h-4.78v4.9l84.44,11.88c.66.09,1.25.44,1.65.98l33.05,44.17c.57.76.66,1.77.23,2.62-.42.85-1.29,1.38-2.24,1.38h-8.7v44.78c0,1.38-1.12,2.5-2.5,2.5Z"/>
          <path class="cls-1" d="M1803.93,182.56c-1.38,0-2.5-1.12-2.5-2.5v-47.28c0-1.1.71-2.03,1.7-2.37l-32.29-13.68c-.92-.39-1.52-1.3-1.52-2.3v-13.13l-54.88-8.54c-.2-.03-.4-.09-.59-.17l-38.41-16.27-38.4,16.27c-.19.08-.39.14-.59.17l-54.88,8.54v13.13c0,1-.6,1.91-1.52,2.3l-32.29,13.68c.99.33,1.7,1.27,1.7,2.37v47.28c0,1.38-1.12,2.5-2.5,2.5s-2.5-1.12-2.5-2.5v-44.78h-8.7c-1.19,0-2.21-.84-2.45-2-.24-1.17.38-2.33,1.48-2.8l41.79-17.7v-13.61c0-1.23.9-2.28,2.12-2.47l56.69-8.82,39.09-16.56c.62-.26,1.33-.26,1.95,0l39.1,16.56,56.69,8.82c1.22.19,2.12,1.24,2.12,2.47v13.61l41.79,17.7c1.09.46,1.71,1.63,1.48,2.8-.24,1.17-1.26,2-2.45,2h-8.7v44.78c0,1.38-1.12,2.5-2.5,2.5Z"/>
          <path class="cls-1" d="M486.36,182.56c-1.38,0-2.5-1.12-2.5-2.5v-47.28c0-1.38,1.12-2.5,2.5-2.5h7.07l-20.55-39.17h-146.5l-20.55,39.17h7.06c1.38,0,2.5,1.12,2.5,2.5v47.28c0,1.38-1.12,2.5-2.5,2.5s-2.5-1.12-2.5-2.5v-44.78h-8.69c-.88,0-1.69-.46-2.14-1.21-.45-.75-.48-1.68-.07-2.46l23.17-44.17c.43-.82,1.28-1.34,2.21-1.34h149.52c.93,0,1.78.52,2.21,1.34l23.17,44.17c.41.77.38,1.71-.07,2.46-.45.75-1.26,1.21-2.14,1.21h-8.7v44.78c0,1.38-1.12,2.5-2.5,2.5Z"/>
          <path class="cls-1" d="M1145.14,182.56c-1.38,0-2.5-1.12-2.5-2.5v-47.28c0-1.38,1.12-2.5,2.5-2.5h6.21l-42.08-56.23-12.02,16.06c-.47.63-1.21,1-2,1h-119.15c-.79,0-1.53-.37-2-1l-31.05-41.48-61.11,81.66h6.21c1.38,0,2.5,1.12,2.5,2.5v47.28c0,1.38-1.12,2.5-2.5,2.5s-2.5-1.12-2.5-2.5v-44.78h-8.7c-.95,0-1.81-.53-2.24-1.38-.42-.85-.33-1.86.23-2.62l66.1-88.33c.47-.63,1.21-1,2-1s1.53.37,2,1l32.3,43.16h116.65l13.27-17.73c.47-.63,1.21-1,2-1s1.53.37,2,1l47.07,62.9c.57.76.66,1.77.23,2.62-.42.85-1.29,1.38-2.24,1.38h-8.7v44.78c0,1.38-1.12,2.5-2.5,2.5Z"/>
        </g>
        <path class="cls-1" d="M1546.93,182.56h-72.4c-1.38,0-2.5-1.12-2.5-2.5s1.12-2.5,2.5-2.5h72.4c1.38,0,2.5,1.12,2.5,2.5s-1.12,2.5-2.5,2.5Z"/>
        <path class="cls-1" d="M1876.32,182.56h-72.4c-1.38,0-2.5-1.12-2.5-2.5s1.12-2.5,2.5-2.5h72.4c1.38,0,2.5,1.12,2.5,2.5s-1.12,2.5-2.5,2.5Z"/>
        <path class="cls-1" d="M1217.54,182.56h-72.4c-1.38,0-2.5-1.12-2.5-2.5s1.12-2.5,2.5-2.5h72.4c1.38,0,2.5,1.12,2.5,2.5s-1.12,2.5-2.5,2.5Z"/>
        <path class="cls-1" d="M888.15,182.56h-72.4c-1.38,0-2.5-1.12-2.5-2.5s1.12-2.5,2.5-2.5h72.4c1.38,0,2.5,1.12,2.5,2.5s-1.12,2.5-2.5,2.5Z"/>
        <path class="cls-1" d="M558.76,182.56h-72.4c-1.38,0-2.5-1.12-2.5-2.5s1.12-2.5,2.5-2.5h72.4c1.38,0,2.5,1.12,2.5,2.5s-1.12,2.5-2.5,2.5Z"/>
        <path class="cls-1" d="M312.89,182.56h-72.39c-1.38,0-2.5-1.12-2.5-2.5s1.12-2.5,2.5-2.5h72.39c1.38,0,2.5,1.12,2.5,2.5s-1.12,2.5-2.5,2.5Z"/>
      </g>
    </g>
  </g>
</svg>