<?xml version="1.0" encoding="UTF-8"?>
<svg id="logoRedPrint" xmlns="http://www.w3.org/2000/svg" viewBox="0 0 1024 1024">
  <defs>
    <style>
      .cls-1 {
        stroke-dasharray: 6.36 6.36;
      }

      .cls-1, .cls-2, .cls-3, .cls-4, .cls-5, .cls-6, .cls-7, .cls-8, .cls-9, .cls-10, .cls-11, .cls-12, .cls-13, .cls-14, .cls-15, .cls-16, .cls-17, .cls-18, .cls-19, .cls-20, .cls-21, .cls-22 {
        stroke: #fff;
        stroke-miterlimit: 10;
      }

      .cls-1, .cls-2, .cls-3, .cls-4, .cls-5, .cls-6, .cls-7, .cls-8, .cls-10, .cls-11, .cls-12, .cls-13, .cls-14, .cls-15, .cls-16, .cls-17, .cls-18, .cls-19, .cls-20, .cls-21, .cls-22 {
        fill: none;
      }

      .cls-2 {
        stroke-dasharray: 12.37 12.37;
      }

      .cls-3 {
        stroke-dasharray: 11.86 11.86;
      }

      .cls-4 {
        stroke-dasharray: 12.02 12.02;
      }

      .cls-5 {
        stroke-dasharray: 13.1 13.1;
      }

      .cls-6 {
        stroke-dasharray: 12.1 12.1;
      }

      .cls-23 {
        opacity: .3;
      }

      .cls-7 {
        stroke-dasharray: 11.68 11.68;
      }

      .cls-8 {
        stroke-dasharray: 11.05 11.05;
      }

      .cls-9, .cls-24 {
        fill: #fff;
      }

      .cls-10 {
        stroke-dasharray: 11.77 11.77;
      }

      .cls-11 {
        stroke-dasharray: 12.04 12.04;
      }

      .cls-13 {
        stroke-width: .5px;
      }

      .cls-14 {
        stroke-dasharray: 11.77 11.77;
      }

      .cls-15 {
        stroke-width: .75px;
      }

      .cls-16 {
        stroke-dasharray: 11.45 11.45;
      }

      .cls-25, .cls-22 {
        opacity: .8;
      }

      .cls-17 {
        stroke-dasharray: 11.87 11.87;
      }

      .cls-18 {
        stroke-dasharray: 11.91 11.91;
      }

      .cls-26 {
        fill: maroon;
      }

      .cls-19 {
        stroke-dasharray: 6.04 6.04;
      }

      .cls-20 {
        stroke-dasharray: 11.63 11.63;
      }

      .cls-21 {
        stroke-width: 2px;
      }
    </style>
  </defs>
  <rect class="cls-26" x="0" width="1024" height="1024"/>
  <g class="cls-23">
    <g>
      <rect class="cls-21" x="30.8" y="30.8" width="962.41" height="962.41"/>
      <line class="cls-21" x1="30.8" y1="832.8" x2="993.2" y2="832.8"/>
      <line class="cls-21" x1="30.8" y1="672.4" x2="993.2" y2="672.4"/>
      <line class="cls-21" x1="30.8" y1="512" x2="993.2" y2="512"/>
      <line class="cls-21" x1="30.8" y1="351.6" x2="993.2" y2="351.6"/>
      <line class="cls-21" x1="30.8" y1="191.2" x2="993.2" y2="191.2"/>
      <line class="cls-21" x1="832.8" y1="30.8" x2="832.8" y2="993.2"/>
      <line class="cls-21" x1="672.4" y1="30.8" x2="672.4" y2="993.2"/>
      <line class="cls-21" x1="512" y1="30.8" x2="512" y2="993.2"/>
      <line class="cls-21" x1="351.6" y1="30.8" x2="351.6" y2="993.2"/>
      <line class="cls-21" x1="191.2" y1="30.8" x2="191.2" y2="993.2"/>
    </g>
    <g>
      <rect class="cls-13" x="30.8" y="30.8" width="962.41" height="962.41"/>
      <line class="cls-13" x1="993.2" y1="57.53" x2="30.8" y2="57.53"/>
      <line class="cls-13" x1="993.2" y1="84.26" x2="30.8" y2="84.26"/>
      <line class="cls-13" x1="993.2" y1="111" x2="30.8" y2="111"/>
      <line class="cls-13" x1="993.2" y1="137.73" x2="30.8" y2="137.73"/>
      <line class="cls-13" x1="993.2" y1="164.46" x2="30.8" y2="164.46"/>
      <line class="cls-13" x1="993.2" y1="191.2" x2="30.8" y2="191.2"/>
      <line class="cls-13" x1="993.2" y1="217.93" x2="30.8" y2="217.93"/>
      <line class="cls-13" x1="993.2" y1="244.66" x2="30.8" y2="244.66"/>
      <line class="cls-13" x1="993.2" y1="271.4" x2="30.8" y2="271.4"/>
      <line class="cls-13" x1="993.2" y1="298.13" x2="30.8" y2="298.13"/>
      <line class="cls-13" x1="993.2" y1="324.87" x2="30.8" y2="324.87"/>
      <line class="cls-13" x1="993.2" y1="351.6" x2="30.8" y2="351.6"/>
      <line class="cls-13" x1="993.2" y1="378.33" x2="30.8" y2="378.33"/>
      <line class="cls-13" x1="993.2" y1="405.07" x2="30.8" y2="405.07"/>
      <line class="cls-13" x1="993.2" y1="431.8" x2="30.8" y2="431.8"/>
      <line class="cls-13" x1="993.2" y1="458.53" x2="30.8" y2="458.53"/>
      <line class="cls-13" x1="993.2" y1="485.27" x2="30.8" y2="485.27"/>
      <line class="cls-13" x1="993.2" y1="512" x2="30.8" y2="512"/>
      <line class="cls-13" x1="993.2" y1="538.73" x2="30.8" y2="538.73"/>
      <line class="cls-13" x1="993.2" y1="565.47" x2="30.8" y2="565.47"/>
      <line class="cls-13" x1="993.2" y1="592.2" x2="30.8" y2="592.2"/>
      <line class="cls-13" x1="993.2" y1="618.93" x2="30.8" y2="618.93"/>
      <line class="cls-13" x1="993.2" y1="645.67" x2="30.8" y2="645.67"/>
      <line class="cls-13" x1="993.2" y1="672.4" x2="30.8" y2="672.4"/>
      <line class="cls-13" x1="993.2" y1="699.13" x2="30.8" y2="699.13"/>
      <line class="cls-13" x1="993.2" y1="725.87" x2="30.8" y2="725.87"/>
      <line class="cls-13" x1="993.2" y1="752.6" x2="30.8" y2="752.6"/>
      <line class="cls-13" x1="993.2" y1="779.34" x2="30.8" y2="779.34"/>
      <line class="cls-13" x1="993.2" y1="806.07" x2="30.8" y2="806.07"/>
      <line class="cls-13" x1="993.2" y1="832.8" x2="30.8" y2="832.8"/>
      <line class="cls-13" x1="993.2" y1="859.54" x2="30.8" y2="859.54"/>
      <line class="cls-13" x1="993.2" y1="886.27" x2="30.8" y2="886.27"/>
      <line class="cls-13" x1="993.2" y1="913" x2="30.8" y2="913"/>
      <line class="cls-13" x1="993.2" y1="939.74" x2="30.8" y2="939.74"/>
      <line class="cls-13" x1="993.2" y1="966.47" x2="30.8" y2="966.47"/>
      <line class="cls-13" x1="57.53" y1="993.2" x2="57.53" y2="30.8"/>
      <line class="cls-13" x1="84.26" y1="993.2" x2="84.26" y2="30.8"/>
      <line class="cls-13" x1="111" y1="993.2" x2="111" y2="30.8"/>
      <line class="cls-13" x1="137.73" y1="993.2" x2="137.73" y2="30.8"/>
      <line class="cls-13" x1="164.46" y1="993.2" x2="164.46" y2="30.8"/>
      <line class="cls-13" x1="191.2" y1="993.2" x2="191.2" y2="30.8"/>
      <line class="cls-13" x1="217.93" y1="993.2" x2="217.93" y2="30.8"/>
      <line class="cls-13" x1="244.66" y1="993.2" x2="244.66" y2="30.8"/>
      <line class="cls-13" x1="271.4" y1="993.2" x2="271.4" y2="30.8"/>
      <line class="cls-13" x1="298.13" y1="993.2" x2="298.13" y2="30.8"/>
      <line class="cls-13" x1="324.87" y1="993.2" x2="324.87" y2="30.8"/>
      <line class="cls-13" x1="351.6" y1="993.2" x2="351.6" y2="30.8"/>
      <line class="cls-13" x1="378.33" y1="993.2" x2="378.33" y2="30.8"/>
      <line class="cls-13" x1="405.07" y1="993.2" x2="405.07" y2="30.8"/>
      <line class="cls-13" x1="431.8" y1="993.2" x2="431.8" y2="30.8"/>
      <line class="cls-13" x1="458.53" y1="993.2" x2="458.53" y2="30.8"/>
      <line class="cls-13" x1="485.27" y1="993.2" x2="485.27" y2="30.8"/>
      <line class="cls-13" x1="512" y1="993.2" x2="512" y2="30.8"/>
      <line class="cls-13" x1="538.73" y1="993.2" x2="538.73" y2="30.8"/>
      <line class="cls-13" x1="565.47" y1="993.2" x2="565.47" y2="30.8"/>
      <line class="cls-13" x1="592.2" y1="993.2" x2="592.2" y2="30.8"/>
      <line class="cls-13" x1="618.93" y1="993.2" x2="618.93" y2="30.8"/>
      <line class="cls-13" x1="645.67" y1="993.2" x2="645.67" y2="30.8"/>
      <line class="cls-13" x1="672.4" y1="993.2" x2="672.4" y2="30.8"/>
      <line class="cls-13" x1="699.13" y1="993.2" x2="699.13" y2="30.8"/>
      <line class="cls-13" x1="725.87" y1="993.2" x2="725.87" y2="30.8"/>
      <line class="cls-13" x1="752.6" y1="993.2" x2="752.6" y2="30.8"/>
      <line class="cls-13" x1="779.34" y1="993.2" x2="779.34" y2="30.8"/>
      <line class="cls-13" x1="806.07" y1="993.2" x2="806.07" y2="30.8"/>
      <line class="cls-13" x1="832.8" y1="993.2" x2="832.8" y2="30.8"/>
      <line class="cls-13" x1="859.54" y1="993.2" x2="859.54" y2="30.8"/>
      <line class="cls-13" x1="886.27" y1="993.2" x2="886.27" y2="30.8"/>
      <line class="cls-13" x1="913" y1="993.2" x2="913" y2="30.8"/>
      <line class="cls-13" x1="939.74" y1="993.2" x2="939.74" y2="30.8"/>
      <line class="cls-13" x1="966.47" y1="993.2" x2="966.47" y2="30.8"/>
    </g>
  </g>
  <g id="Atnip">
    <path class="cls-24" d="M830.39,619.37c13.76,0,24.27,1.25,31.25,3.71,6.69,2.36,12.04,6,15.91,10.8,3.8,4.72,5.65,9.86,5.65,15.7,0,8.95-3.82,16-11.68,21.56-8.18,5.79-19.41,8.72-33.37,8.72h-28.08v39.09h-39.03v-99.59h59.35M810.07,664.77h11.91c18.33,0,22.18-8,22.18-14.72,0-5.26-2.7-14.09-20.81-14.09h-13.28v28.81M830.39,615.37h-63.35v107.59h47.03v-39.09h24.08c14.87,0,26.77-3.15,35.68-9.46,8.91-6.31,13.37-14.58,13.37-24.83,0-6.73-2.18-12.79-6.54-18.21-4.36-5.41-10.26-9.43-17.69-12.06-7.44-2.63-18.3-3.94-32.58-3.94h0ZM814.07,660.77v-20.81h9.28c11.2,0,16.81,3.36,16.81,10.09,0,7.15-6.06,10.72-18.18,10.72h-7.91Z"/>
    <path class="cls-24" d="M731.01,619.37v99.59h-34.91v-99.59h34.91M735.01,615.37h-42.91v107.59h42.91v-107.59h0Z"/>
    <path class="cls-24" d="M656.08,619.36v99.6h-37.2l-59.98-62.81-6.89-7.22v70.03h-34.8v-99.6h44.17l52.95,53.52,6.84,6.92v-60.44h34.91M660.08,615.36h-42.91v54.71l-54.13-54.71h-49.83v107.6h42.8v-64.05l61.16,64.05h42.91v-107.6h0Z"/>
    <path class="cls-24" d="M291,305.04l-4.44,18.28-17.43,71.83-5.64,23.24-30.01,123.69-1.2,4.94h70.2l-1.2-4.94-24.15-99.52,5.41-22.28,17.43-71.83,1.75-7.21,29.94,123.38,19.26,79.35.74,3.06h87.38v-123.26l38.14,17.66v105.6h178.9v38.14h-178.9v133.79h-38.14v-133.79h-78.12l1.2,4.94,31.27,128.85h-49.18l-31.73-130.73-.74-3.06h-88.71l-.74,3.06-31.73,130.73h-49.18l31.27-128.85,1.2-4.94h-58.85v-38.14h68.1l.74-3.06,53.08-218.75.23-.94-.23-.94-4.44-18.29h58.52M296.09,301.04h-68.69l5.64,23.24-53.08,218.75h-68.96v46.14h57.76l-32.47,133.79h57.41l32.47-133.79h82.42l32.47,133.79h57.41l-32.47-133.79h69.04v133.79h46.14v-133.79h178.9v-46.14h-178.9v-104.16l-46.14-21.37v125.53h-80.23l-19.26-79.35-33.83-139.39-5.64,23.23-17.43,71.83-5.64,23.23,24.38,100.46h-60.03l30.01-123.69,5.64-23.24,17.43-71.83,5.64-23.22h0Z"/>
    <path class="cls-24" d="M713.55,552.58c8.99,0,16.3,7.31,16.3,16.3s-7.31,16.3-16.3,16.3-16.29-7.31-16.29-16.3,7.31-16.3,16.29-16.3M713.55,548.58c-11.21,0-20.29,9.09-20.29,20.3s9.09,20.3,20.29,20.3,20.3-9.09,20.3-20.3-9.09-20.3-20.3-20.3h0Z"/>
    <path class="cls-24" d="M435.04,372.2l111.86,51.8,22.05,10.22,3.9,1.8,3.41,1.58,5.68,2.63v-41.58h113.39v94.09l2.32,1.07,1.36.63h0s2.32,1.09,2.32,1.09l19.44,9,23.47,10.87,28.99,13.43,121.63,56.33h-63.91l-83.35-38.6-28.77-13.33-14.14-6.55-3.68-1.7-36.92-17.1v-77.99h-50.91v54.42l-33.36-15.45-.08-.04-.06-.03-.06-.03-142.89-66.17-1.68-.78-1.68.78-46.14,21.37-41.28,19.13-6.46-26.62,51.09-23.67,44.46-20.59M435.04,367.79l-46.14,21.37-54.08,25.05,8.38,34.55,45.7-21.17,46.14-21.37,142.89,66.17.13.07,36.43,16.87,2.67,1.24v-56.68h42.91v76.55l39.24,18.18,3.68,1.7,14.14,6.55,28.77,13.33,84.15,38.97h82.95l-138.11-63.96-28.99-13.43-23.47-10.87-19.44-9h0s-3.68-1.71-3.68-1.71v-95.53h-121.39v39.32l-3.41-1.58-3.9-1.8-22.04-10.22-113.54-52.58h0Z"/>
  </g>
  <line class="cls-22" x1="424.6" y1="832.69" x2="268.94" y2="191.3"/>
  <line class="cls-22" x1="368.16" y1="832.48" x2="212.5" y2="191.09"/>
  <line class="cls-22" x1="129.62" y1="752.5" x2="246.36" y2="271.49"/>
  <line class="cls-22" x1="186.12" y1="752.07" x2="302.74" y2="271.49"/>
  <line class="cls-22" x1="343.98" y1="779.35" x2="214.24" y2="244.76"/>
  <g class="cls-25">
    <g>
      <line class="cls-12" x1="659.58" y1="590.41" x2="659.58" y2="596.41"/>
      <line class="cls-10" x1="659.58" y1="608.18" x2="659.58" y2="790.63"/>
      <polyline class="cls-12" points="659.58 796.51 659.58 802.51 653.58 802.51"/>
      <line class="cls-18" x1="641.67" y1="802.51" x2="123.45" y2="802.51"/>
      <polyline class="cls-12" points="117.5 802.51 111.5 802.51 111.5 796.51"/>
      <line class="cls-14" x1="111.5" y1="784.74" x2="111.5" y2="602.3"/>
      <line class="cls-12" x1="111.5" y1="596.41" x2="111.5" y2="590.41"/>
    </g>
    <g>
      <rect class="cls-24" x="111.5" y="802.47" width="548.08" height="1.45"/>
      <path class="cls-24" d="M659.08,802.97v.45H112v-.45h547.08M660.08,801.97H111v2.45h549.08v-2.45h0Z"/>
    </g>
  </g>
  <g class="cls-25">
    <g>
      <line class="cls-12" x1="335.35" y1="413.5" x2="335.35" y2="407.5"/>
      <line class="cls-7" x1="335.35" y1="395.82" x2="335.35" y2="238.19"/>
      <polyline class="cls-12" points="335.35 232.35 335.35 226.35 341.35 226.35"/>
      <line class="cls-4" x1="353.38" y1="226.35" x2="900.47" y2="226.35"/>
      <polyline class="cls-12" points="906.48 226.35 912.48 226.35 912.48 232.35"/>
      <line class="cls-6" x1="912.48" y1="244.44" x2="912.48" y2="577.11"/>
      <line class="cls-12" x1="912.48" y1="583.15" x2="912.48" y2="589.15"/>
    </g>
    <rect class="cls-9" x="335.35" y="224.44" width="577.13" height="1.91"/>
  </g>
  <g class="cls-25">
    <g>
      <line class="cls-12" x1="578.43" y1="392.47" x2="578.43" y2="386.47"/>
      <line class="cls-17" x1="578.43" y1="374.6" x2="578.43" y2="309.32"/>
      <polyline class="cls-12" points="578.43 303.38 578.43 297.38 584.43 297.38"/>
      <line class="cls-11" x1="596.47" y1="297.38" x2="686.73" y2="297.38"/>
      <polyline class="cls-12" points="692.75 297.38 698.75 297.38 698.75 303.38"/>
      <line class="cls-16" x1="698.75" y1="314.84" x2="698.75" y2="377.83"/>
      <line class="cls-12" x1="698.75" y1="383.55" x2="698.75" y2="389.55"/>
    </g>
    <rect class="cls-9" x="578.43" y="296.42" width="120.32" height=".97"/>
  </g>
  <g class="cls-25">
    <g>
      <line class="cls-12" x1="709.28" y1="395.15" x2="715.28" y2="395.15"/>
      <line class="cls-17" x1="727.15" y1="395.15" x2="792.44" y2="395.15"/>
      <polyline class="cls-12" points="798.37 395.15 804.37 395.15 804.37 401.15"/>
      <line class="cls-3" x1="804.37" y1="413.01" x2="804.37" y2="478.24"/>
      <polyline class="cls-12" points="804.37 484.17 804.37 490.17 798.37 490.17"/>
      <line class="cls-5" x1="785.27" y1="490.17" x2="713.21" y2="490.17"/>
      <line class="cls-12" x1="706.66" y1="490.17" x2="700.66" y2="490.17"/>
    </g>
    <rect class="cls-9" x="804.37" y="395.15" width=".97" height="95.02"/>
  </g>
  <g class="cls-25">
    <line class="cls-12" x1="693.26" y1="543.64" x2="693.26" y2="594.19"/>
    <line class="cls-12" x1="733.85" y1="543.64" x2="733.85" y2="594.19"/>
    <line class="cls-12" x1="688.28" y1="589.21" x2="738.83" y2="589.21"/>
    <line class="cls-12" x1="688.28" y1="548.62" x2="738.83" y2="548.62"/>
  </g>
  <g class="cls-25">
    <g>
      <line class="cls-12" x1="109.34" y1="588.67" x2="103.34" y2="588.67"/>
      <line class="cls-1" x1="96.98" y1="588.67" x2="87.45" y2="588.67"/>
      <polyline class="cls-12" points="84.27 588.67 78.27 588.67 78.27 582.67"/>
      <line class="cls-8" x1="78.27" y1="571.62" x2="78.27" y2="555.05"/>
      <polyline class="cls-12" points="78.27 549.53 78.27 543.53 84.27 543.53"/>
      <line class="cls-19" x1="90.31" y1="543.53" x2="99.36" y2="543.53"/>
      <line class="cls-12" x1="102.38" y1="543.53" x2="108.38" y2="543.53"/>
    </g>
    <rect class="cls-9" x="77.13" y="543.53" width="1.14" height="45.14"/>
  </g>
  <g class="cls-25">
    <g>
      <line class="cls-12" x1="915.27" y1="589.15" x2="921.27" y2="589.15"/>
      <line class="cls-2" x1="933.64" y1="589.15" x2="952.2" y2="589.15"/>
      <polyline class="cls-12" points="958.38 589.15 964.38 589.15 964.38 595.15"/>
      <polyline class="cls-12" points="964.38 609.37 964.38 615.37 958.38 615.37"/>
      <line class="cls-20" x1="946.75" y1="615.37" x2="859.5" y2="615.37"/>
      <line class="cls-12" x1="853.69" y1="615.37" x2="847.69" y2="615.37"/>
    </g>
    <rect class="cls-9" x="964.38" y="589.15" width="1.8" height="26.21"/>
  </g>
  <g class="cls-25">
    <polygon class="cls-24" points="480.43 722.95 480.43 766.94 481.18 766.94 481.18 722.95 480.43 722.95 480.43 722.95"/>
    <polygon class="cls-24" points="513.96 766.94 513.96 722.95 513.21 722.95 513.21 766.94 513.96 766.94 513.96 766.94"/>
    <line class="cls-15" x1="481.18" y1="759.14" x2="513.21" y2="759.14"/>
    <g>
      <line class="cls-15" x1="523.17" y1="759.14" x2="536.87" y2="759.14"/>
      <polygon class="cls-24" points="525.4 762.4 513.21 759.14 525.4 755.87 525.4 762.4"/>
    </g>
    <g>
      <line class="cls-15" x1="470.77" y1="759.14" x2="457.07" y2="759.14"/>
      <polygon class="cls-24" points="468.54 755.87 480.73 759.14 468.54 762.4 468.54 755.87"/>
    </g>
  </g>
  <g class="cls-25">
    <polygon class="cls-24" points="659.32 722.96 659.32 766.94 660.07 766.94 660.07 722.96 659.32 722.96 659.32 722.96"/>
    <polygon class="cls-24" points="692.84 766.94 692.84 722.96 692.09 722.96 692.09 766.94 692.84 766.94 692.84 766.94"/>
    <line class="cls-15" x1="660.07" y1="759.14" x2="692.09" y2="759.14"/>
    <g>
      <line class="cls-15" x1="702.06" y1="759.14" x2="715.76" y2="759.14"/>
      <polygon class="cls-24" points="704.29 762.41 692.09 759.14 704.29 755.87 704.29 762.41"/>
    </g>
    <g>
      <line class="cls-15" x1="649.66" y1="759.14" x2="635.96" y2="759.14"/>
      <polygon class="cls-24" points="647.43 755.87 659.62 759.14 647.43 762.41 647.43 755.87"/>
    </g>
  </g>
  <g class="cls-25">
    <polygon class="cls-24" points="734.27 722.96 734.27 766.94 735.02 766.94 735.02 722.96 734.27 722.96 734.27 722.96"/>
    <polygon class="cls-24" points="767.8 766.94 767.8 722.96 767.05 722.96 767.05 766.94 767.8 766.94 767.8 766.94"/>
    <line class="cls-15" x1="735.02" y1="759.14" x2="767.05" y2="759.14"/>
    <g>
      <line class="cls-15" x1="777.02" y1="759.14" x2="790.72" y2="759.14"/>
      <polygon class="cls-24" points="779.25 762.41 767.05 759.14 779.25 755.87 779.25 762.41"/>
    </g>
    <g>
      <line class="cls-15" x1="724.61" y1="759.14" x2="710.91" y2="759.14"/>
      <polygon class="cls-24" points="722.38 755.87 734.58 759.14 722.38 762.41 722.38 755.87"/>
    </g>
  </g>
  <line class="cls-22" x1="354.89" y1="331.22" x2="981.43" y2="621.4"/>
  <line class="cls-22" x1="355.1" y1="368.64" x2="982.32" y2="659.13"/>
  <line class="cls-22" x1="366.1" y1="386.11" x2="958.15" y2="660.32"/>
  <line class="cls-22" x1="486.63" y1="381.86" x2="305.75" y2="465.63"/>
  <line class="cls-22" x1="485.74" y1="344.86" x2="305.46" y2="428.36"/>
  <g class="cls-25">
    <line class="cls-12" x1="578.43" y1="366.46" x2="578.43" y2="526.96"/>
    <line class="cls-12" x1="616.67" y1="366.47" x2="616.67" y2="526.97"/>
  </g>
  <g class="cls-25">
    <line class="cls-12" x1="660.54" y1="366.46" x2="660.54" y2="526.96"/>
    <line class="cls-12" x1="698.78" y1="366.47" x2="698.78" y2="526.97"/>
  </g>
  <g class="cls-25">
    <line class="cls-12" x1="720.2" y1="395.15" x2="559.7" y2="395.15"/>
    <line class="cls-12" x1="720.2" y1="433.39" x2="559.7" y2="433.39"/>
  </g>
</svg>