<?xml version="1.0" encoding="UTF-8"?>
<svg id="Layer_2" xmlns="http://www.w3.org/2000/svg" viewBox="0 0 422.24 260.14">
  <defs>
    <style>
      .cls-1 {
        fill: #ad5c00;
      }

      .cls-2 {
        fill: maroon;
      }
    </style>
  </defs>
  <g id="logo2">
    <g id="con2">
      <path d="M29.09,240.95c-.25-.76-.72-1.47-1.41-2.14-.69-.66-1.55-1.24-2.58-1.73-1.03-.49-2.21-.88-3.55-1.16-1.34-.28-2.78-.42-4.31-.42-2.18,0-4.15.24-5.92.72-1.77.48-3.29,1.19-4.53,2.14-1.25.94-2.21,2.12-2.88,3.52-.68,1.41-1.01,3.05-1.01,4.91s.34,3.51,1.01,4.94c.68,1.42,1.64,2.62,2.88,3.58,1.25.96,2.75,1.7,4.5,2.19s3.7.75,5.86.75c3.25,0,5.93-.49,8.04-1.48,2.11-.99,3.41-2.43,3.92-4.33h2.85c-.27,1.21-.84,2.3-1.68,3.26-.85.96-1.91,1.76-3.19,2.42-1.28.65-2.76,1.15-4.43,1.49-1.67.34-3.48.51-5.43.51-2.66,0-5.04-.32-7.16-.95-2.12-.63-3.92-1.52-5.41-2.67-1.49-1.15-2.63-2.55-3.43-4.19C.4,250.69,0,248.85,0,246.81s.4-3.84,1.2-5.46c.8-1.62,1.95-3,3.45-4.14,1.5-1.14,3.31-2.02,5.43-2.64,2.12-.62,4.49-.92,7.13-.92,1.81,0,3.53.18,5.17.54,1.64.36,3.11.86,4.41,1.51s2.4,1.42,3.3,2.31c.89.9,1.51,1.88,1.85,2.95h-2.85Z"/>
      <path d="M56.22,233.65c2.56,0,4.93.31,7.11.93,2.17.62,4.05,1.51,5.61,2.66,1.57,1.15,2.79,2.54,3.67,4.15.88,1.62,1.32,3.42,1.32,5.42s-.44,3.78-1.31,5.42c-.87,1.63-2.09,3.04-3.66,4.21-1.57,1.18-3.43,2.09-5.6,2.73-2.16.65-4.55.97-7.16.97s-5-.32-7.18-.97c-2.18-.65-4.05-1.55-5.61-2.72-1.57-1.17-2.79-2.57-3.66-4.2-.87-1.63-1.3-3.45-1.3-5.44s.44-3.82,1.32-5.44c.88-1.62,2.11-3,3.69-4.14,1.58-1.14,3.45-2.03,5.62-2.65,2.16-.62,4.54-.93,7.13-.93ZM56.18,258.27c2.15,0,4.14-.25,5.96-.76,1.82-.51,3.39-1.25,4.72-2.23,1.33-.98,2.36-2.18,3.09-3.61.73-1.42,1.1-3.05,1.1-4.87s-.37-3.46-1.12-4.86c-.74-1.4-1.77-2.58-3.09-3.54-1.32-.96-2.87-1.68-4.67-2.17-1.8-.49-3.76-.74-5.89-.74s-4.17.25-5.99.75c-1.82.5-3.39,1.23-4.72,2.18-1.33.96-2.36,2.14-3.11,3.54-.74,1.4-1.12,3.01-1.12,4.83s.37,3.44,1.1,4.87c.73,1.42,1.76,2.63,3.07,3.61,1.32.98,2.88,1.72,4.71,2.23,1.82.51,3.81.76,5.96.76Z"/>
      <path d="M110.86,259.67h-3.61l-22.94-23.34v23.34h-2.75v-25.56h3.78l22.77,23.29v-23.29h2.75v25.56Z"/>
      <path d="M134.21,260.14c-2.54,0-4.76-.18-6.66-.55-1.9-.37-3.5-.89-4.79-1.56-1.29-.68-2.28-1.49-2.97-2.45s-1.09-2.03-1.2-3.23h2.71c.27,1.15.79,2.11,1.55,2.87s1.69,1.37,2.8,1.82c1.11.45,2.37.77,3.79.96,1.42.19,2.93.28,4.53.28s3.18-.12,4.52-.36c1.34-.24,2.48-.59,3.43-1.05.95-.46,1.68-1.01,2.18-1.66.5-.65.76-1.37.76-2.18,0-.86-.22-1.58-.65-2.16-.44-.58-1.17-1.09-2.2-1.53s-2.39-.82-4.07-1.17c-1.68-.34-3.77-.69-6.27-1.05-2.06-.31-3.83-.67-5.31-1.07s-2.7-.88-3.66-1.41-1.67-1.15-2.13-1.84c-.46-.69-.69-1.5-.69-2.42,0-1,.31-1.91.93-2.73s1.49-1.53,2.63-2.12,2.5-1.05,4.09-1.38c1.59-.33,3.35-.49,5.27-.49s3.69.15,5.29.46c1.6.3,3,.74,4.21,1.32,1.2.58,2.17,1.28,2.92,2.1.74.83,1.22,1.76,1.43,2.8h-2.64c-.25-.68-.66-1.32-1.24-1.91-.57-.59-1.31-1.1-2.21-1.53-.9-.43-1.98-.76-3.23-1-1.25-.24-2.67-.36-4.28-.36-3.37,0-5.91.42-7.64,1.26-1.73.84-2.59,1.99-2.59,3.45,0,.67.16,1.25.48,1.75.32.5.86.95,1.63,1.34.77.4,1.78.75,3.04,1.05,1.26.3,2.83.59,4.71.85,1.1.16,2.23.32,3.4.49,1.17.17,2.31.37,3.42.61,1.11.23,2.17.52,3.18.86,1.01.34,1.88.76,2.63,1.26.74.5,1.34,1.09,1.79,1.79.45.69.67,1.51.67,2.46,0,1.09-.34,2.09-1.01,3-.68.91-1.61,1.7-2.82,2.36-1.2.66-2.63,1.17-4.29,1.54-1.66.37-3.46.55-5.41.55Z"/>
      <path d="M181.88,235.98h-13.15v23.69h-2.75v-23.69h-13.02v-1.87h28.92v1.87Z"/>
      <path d="M218.8,259.67h-3.02l-3.74-6.79c-.37-.65-.77-1.27-1.22-1.84-.45-.58-.97-1.08-1.56-1.51-.6-.43-1.28-.77-2.04-1.01-.77-.25-1.67-.37-2.7-.37h-13.15v11.53h-2.75v-25.56h16.93c1.58,0,3.11.1,4.58.29,1.48.2,2.79.54,3.95,1.04,1.16.5,2.08,1.19,2.76,2.07.69.88,1.03,2,1.03,3.37,0,.86-.15,1.65-.46,2.39-.31.74-.78,1.4-1.41,1.98-.63.58-1.43,1.08-2.4,1.49-.97.41-2.11.71-3.42.9.71.37,1.29.73,1.75,1.07.46.34.85.71,1.18,1.1.33.39.63.82.89,1.28.26.47.57,1,.91,1.61l3.88,6.96ZM191.36,246.28h13.05c1.85,0,3.45-.09,4.77-.28,1.33-.19,2.42-.49,3.28-.92.86-.43,1.49-.98,1.91-1.67.41-.68.62-1.53.62-2.52,0-1.76-.82-3.01-2.46-3.77-1.64-.75-4.08-1.13-7.33-1.13h-13.84v10.29Z"/>
      <path d="M241.53,260.14c-2.24,0-4.16-.16-5.75-.48-1.59-.32-2.91-.75-3.97-1.3-1.05-.54-1.89-1.18-2.51-1.91-.62-.73-1.09-1.51-1.41-2.33-.32-.82-.52-1.68-.6-2.57-.08-.89-.12-1.75-.12-2.59v-14.85h2.75v14.78c0,1.95.26,3.53.77,4.75s1.27,2.17,2.27,2.86c1,.69,2.21,1.15,3.64,1.4,1.43.25,3.07.37,4.93.37s3.54-.12,5-.37c1.45-.25,2.67-.72,3.64-1.41.97-.69,1.71-1.65,2.22-2.86.5-1.21.76-2.79.76-4.74v-14.78h2.75v14.85c0,1.76-.22,3.33-.65,4.71-.44,1.38-1.19,2.56-2.27,3.51-1.08.96-2.54,1.69-4.4,2.19-1.85.51-4.2.76-7.04.76Z"/>
      <path d="M293.01,240.95c-.25-.76-.72-1.47-1.41-2.14-.69-.66-1.55-1.24-2.58-1.73-1.03-.49-2.21-.88-3.55-1.16-1.34-.28-2.78-.42-4.31-.42-2.18,0-4.15.24-5.92.72-1.77.48-3.29,1.19-4.53,2.14-1.25.94-2.21,2.12-2.88,3.52-.68,1.41-1.01,3.05-1.01,4.91s.34,3.51,1.01,4.94c.68,1.42,1.64,2.62,2.88,3.58,1.25.96,2.75,1.7,4.5,2.19s3.7.75,5.86.75c3.25,0,5.93-.49,8.04-1.48,2.11-.99,3.41-2.43,3.92-4.33h2.85c-.27,1.21-.84,2.3-1.68,3.26-.85.96-1.91,1.76-3.19,2.42-1.28.65-2.76,1.15-4.43,1.49-1.67.34-3.48.51-5.43.51-2.66,0-5.04-.32-7.16-.95-2.12-.63-3.92-1.52-5.41-2.67-1.49-1.15-2.63-2.55-3.43-4.19-.8-1.64-1.2-3.48-1.2-5.52s.4-3.84,1.2-5.46c.8-1.62,1.95-3,3.45-4.14,1.5-1.14,3.31-2.02,5.43-2.64,2.12-.62,4.49-.92,7.13-.92,1.81,0,3.53.18,5.17.54,1.64.36,3.11.86,4.41,1.51s2.4,1.42,3.3,2.31c.89.9,1.51,1.88,1.85,2.95h-2.85Z"/>
      <path d="M330.1,235.98h-13.15v23.69h-2.75v-23.69h-13.02v-1.87h28.92v1.87Z"/>
      <path d="M340.78,259.67h-2.75v-25.56h2.75v25.56Z"/>
      <path d="M367.6,233.65c2.56,0,4.93.31,7.11.93,2.17.62,4.05,1.51,5.61,2.66,1.57,1.15,2.79,2.54,3.67,4.15.88,1.62,1.32,3.42,1.32,5.42s-.44,3.78-1.31,5.42c-.87,1.63-2.09,3.04-3.66,4.21-1.57,1.18-3.43,2.09-5.6,2.73-2.16.65-4.55.97-7.16.97s-5-.32-7.18-.97c-2.18-.65-4.05-1.55-5.61-2.72-1.57-1.17-2.79-2.57-3.66-4.2-.87-1.63-1.3-3.45-1.3-5.44s.44-3.82,1.32-5.44c.88-1.62,2.11-3,3.69-4.14,1.58-1.14,3.45-2.03,5.62-2.65,2.16-.62,4.54-.93,7.13-.93ZM367.57,258.27c2.15,0,4.14-.25,5.96-.76,1.82-.51,3.39-1.25,4.72-2.23,1.33-.98,2.36-2.18,3.09-3.61.73-1.42,1.1-3.05,1.1-4.87s-.37-3.46-1.12-4.86c-.74-1.4-1.77-2.58-3.09-3.54-1.32-.96-2.87-1.68-4.67-2.17-1.8-.49-3.76-.74-5.89-.74s-4.17.25-5.99.75c-1.82.5-3.39,1.23-4.72,2.18-1.33.96-2.36,2.14-3.11,3.54-.74,1.4-1.12,3.01-1.12,4.83s.37,3.44,1.1,4.87c.73,1.42,1.76,2.63,3.07,3.61,1.32.98,2.88,1.72,4.71,2.23,1.82.51,3.81.76,5.96.76Z"/>
      <path d="M422.24,259.67h-3.61l-22.94-23.34v23.34h-2.75v-25.56h3.78l22.77,23.29v-23.29h2.75v25.56Z"/>
    </g>
    <g id="Atnip">
      <path class="cls-2" d="M370.16,201.55v20.58h-24.76v-56.64h33.35c7.52,0,13.24.69,17.15,2.07,3.91,1.38,7.02,3.5,9.31,6.35,2.29,2.85,3.44,6.04,3.44,9.59,0,5.39-2.35,9.75-7.04,13.07-4.69,3.32-10.95,4.98-18.78,4.98h-12.68ZM370.16,189.39h4.16c6.38,0,9.57-1.88,9.57-5.64,0-3.54-2.95-5.31-8.85-5.31h-4.89v10.96Z"/>
      <path class="cls-2" d="M328.53,165.49v56.64h-22.59v-56.64h22.59Z"/>
      <polygon class="cls-2" points="289.08 165.48 289.08 222.13 266.49 222.13 234.29 188.41 234.29 222.13 211.76 222.13 211.76 165.48 237.99 165.48 266.49 194.29 266.49 165.48 289.08 165.48"/>
      <polygon class="cls-2" points="289.08 127.4 289.08 151.69 194.9 151.69 194.9 222.13 170.6 222.13 170.6 151.69 134.26 151.69 151.35 222.13 121.13 222.13 104.03 151.69 60.64 151.69 43.54 222.13 13.31 222.13 30.41 151.69 0 151.69 0 127.4 36.31 127.4 64.25 12.23 61.28 0 97.45 0 97.45 0 94.48 12.23 85.3 50.05 82.33 62.28 66.53 127.4 98.14 127.4 85.3 74.51 88.27 62.28 97.45 24.46 100.42 12.23 118.22 85.62 128.36 127.4 170.6 127.4 170.6 61.31 194.9 72.56 194.9 127.4 289.08 127.4"/>
      <circle class="cls-1" cx="317.24" cy="141.01" r="10.69"/>
      <polygon class="cls-1" points="422.24 151.69 378.57 151.69 334.27 131.17 319.12 124.15 311.68 120.71 309.74 119.81 289.08 110.24 289.08 69.94 266.49 69.94 266.49 99.78 265.08 99.13 245.9 90.25 245.83 90.21 170.6 55.37 146.31 66.62 122.25 77.77 117.84 59.58 146.31 46.39 170.6 35.14 230.38 62.82 241.99 68.2 244.04 69.15 245.83 69.98 245.83 49.28 309.74 49.28 309.74 99.58 311.68 100.48 311.68 100.48 321.91 105.22 334.27 110.94 349.53 118.01 422.24 151.69"/>
    </g>
  </g>
</svg>