<?xml version="1.0" encoding="UTF-8"?>
<svg id="Layer_2" xmlns="http://www.w3.org/2000/svg" viewBox="0 0 539.69 548.41">
  <defs>
    <style>
      .cls-1 {
        fill: maroon;
      }
    </style>
  </defs>
  <g id="logo2">
    <path class="cls-1" d="M439.69,548.41H100c-55.23,0-100-44.77-100-100V100C0,44.77,44.77,0,100,0h339.69c55.23,0,100,44.77,100,100v348.41c0,55.23-44.77,100-100,100ZM473.12,314.54h-89.63l-25.03-103.15-43.97-181.19-7.33,30.19-22.66,93.37-7.33,30.19,31.69,130.58h-78.03l39.01-160.77,7.33-30.21,22.66-93.37L307.16.01h0s-89.28-.01-89.28-.01l7.33,30.21-69,284.33h-89.63v59.97h75.08l-42.21,173.9h74.63l42.21-173.9h107.13l42.21,173.9h74.63l-42.21-173.9h75.08v-59.97Z"/>
  </g>
</svg>